<?xml version="1.0" encoding="UTF-8"?>
<svg width="1440px" height="394px" viewBox="0 0 1440 394" version="1.1" xmlns="http://www.w3.org/2000/svg" xmlns:xlink="http://www.w3.org/1999/xlink">
    <title>typography</title>
    <defs>
        <rect id="path-1" x="0" y="0" width="1440" height="394" rx="12"></rect>
    </defs>
    <g id="typography" stroke="none" stroke-width="1" fill="none" fill-rule="evenodd">
        <mask id="mask-2" fill="white">
            <use xlink:href="#path-1"></use>
        </mask>
        <use id="Mask" fill="#FFFFFF" xlink:href="#path-1"></use>
        <text id="General-Palette" opacity="0.9" mask="url(#mask-2)" font-family="MyriadPro-Light, Myriad Pro" font-size="36" font-weight="300" fill="#4D4D4D">
            <tspan x="46" y="75">Typography </tspan>
        </text>
        <g id="Group-3" mask="url(#mask-2)">
            <g transform="translate(765.000000, 137.424000)">
                <text id="3.-Card/2.-Body---14px" font-family="MyriadPro-Regular, Myriad Pro" font-size="14" font-weight="normal" line-spacing="20" letter-spacing="0.15">
                    <tspan x="0" y="89.576" fill="#444444">Body Card Regular  - 14px</tspan>
                </text>
                <g id="Cards" stroke-width="1" fill-rule="evenodd">
                    <path d="M4.984,9.716 C6.146,9.716 7.056,9.478 7.532,9.24 L7.336,8.708 C6.79,8.974 6.006,9.142 5.208,9.142 C2.674,9.142 1.218,7.49 1.218,4.928 C1.218,2.212 2.772,0.56 5.32,0.56 C6.118,0.56 6.804,0.728 7.28,0.966 L7.49,0.406 C7.21,0.266 6.51,0 5.306,0 C2.324,0 0.518,2.114 0.518,4.914 C0.518,8.26 2.702,9.716 4.984,9.716 Z M9.086,9.576 L10.248,6.272 L13.986,6.272 L15.176,9.576 L15.862,9.576 L12.46,0.14 L11.816,0.14 L8.4,9.576 L9.086,9.576 Z M13.776,5.712 L10.458,5.712 L11.62,2.534 C11.816,1.932 11.97,1.442 12.11,0.896 L12.138,0.896 C12.278,1.428 12.404,1.904 12.628,2.562 L13.776,5.712 Z M17.976,9.576 L17.976,5.25 L19.446,5.25 C20.692,5.306 21.28,5.922 21.574,7.28 C21.826,8.47 22.022,9.296 22.176,9.576 L22.862,9.576 C22.666,9.198 22.484,8.498 22.162,7.028 C21.938,5.978 21.462,5.264 20.706,5.026 L20.706,4.998 C21.798,4.62 22.554,3.808 22.554,2.534 C22.554,1.876 22.302,1.246 21.896,0.854 C21.364,0.336 20.58,0.07 19.348,0.07 C18.69,0.07 17.892,0.14 17.304,0.266 L17.304,9.576 L17.976,9.576 Z M19.474,4.704 L17.976,4.704 L17.976,0.742 C18.214,0.686 18.69,0.616 19.334,0.616 C20.818,0.616 21.882,1.204 21.882,2.646 C21.882,3.892 20.93,4.704 19.474,4.704 Z M26.474,9.646 C28.294,9.646 29.722,9.114 30.548,8.204 C31.402,7.266 31.78,6.02 31.78,4.634 C31.78,3.206 31.36,2.142 30.604,1.358 C29.82,0.532 28.518,0.07 26.796,0.07 C25.9,0.07 25.102,0.154 24.374,0.28 L24.374,9.576 C25.06,9.632 25.746,9.646 26.474,9.646 Z M26.572,9.086 C25.97,9.086 25.424,9.072 25.046,9.016 L25.046,0.784 C25.452,0.7 26.026,0.63 26.754,0.63 C29.792,0.63 31.122,2.268 31.094,4.662 C31.094,7.392 29.596,9.086 26.572,9.086 Z M35.14,9.716 C37.156,9.716 38.136,8.498 38.136,7.126 C38.136,5.726 37.31,5.012 35.756,4.382 C34.398,3.85 33.796,3.318 33.796,2.282 C33.796,1.54 34.314,0.56 35.84,0.56 C36.652,0.56 37.254,0.826 37.506,1.008 L37.758,0.434 C37.436,0.224 36.764,0 35.882,0 C34.272,0 33.138,1.008 33.138,2.394 C33.138,3.668 34.048,4.452 35.56,4.998 C36.932,5.516 37.478,6.146 37.478,7.196 C37.478,8.358 36.61,9.156 35.196,9.156 C34.412,9.156 33.67,8.904 33.138,8.54 L32.886,9.086 C33.376,9.45 34.328,9.716 35.14,9.716 Z" id="CARDS" fill="#444444" fill-rule="nonzero"></path>
                    <polygon id="Decoration" fill="#444444" fill-rule="nonzero" points="0 9.926 0 10.626 37.568 10.626 37.568 9.926"></polygon>
                </g>
                <text id="3.-Card/1.-H1---16px" font-family="MyriadPro-Semibold, Myriad Pro" font-size="16" font-weight="500" line-spacing="24" letter-spacing="0.15">
                    <tspan x="0" y="51.576" fill="#444444">H1 Card Semibold  - 16px</tspan>
                </text>
            </g>
        </g>
        <g id="Group" mask="url(#mask-2)">
            <g transform="translate(46.000000, 137.466000)">
                <g id="Page" stroke-width="1" fill-rule="evenodd">
                    <path d="M1.806,9.534 L1.806,5.502 C2.142,5.6 2.52,5.614 2.954,5.614 C4.116,5.614 5.124,5.25 5.726,4.564 C6.16,4.088 6.384,3.486 6.384,2.674 C6.384,1.89 6.118,1.26 5.656,0.826 C5.138,0.322 4.284,0.028 3.164,0.028 C2.366,0.028 1.68,0.112 1.134,0.21 L1.134,9.534 L1.806,9.534 Z M3.01,5.054 C2.548,5.054 2.128,5.026 1.806,4.914 L1.806,0.7 C2.058,0.644 2.52,0.588 3.136,0.588 C4.634,0.588 5.712,1.26 5.712,2.744 C5.712,4.242 4.704,5.054 3.01,5.054 Z M6.748,9.534 L7.91,6.23 L11.648,6.23 L12.838,9.534 L13.524,9.534 L10.122,0.098 L9.478,0.098 L6.062,9.534 L6.748,9.534 Z M11.438,5.67 L8.12,5.67 L9.282,2.492 C9.478,1.89 9.632,1.4 9.772,0.854 L9.8,0.854 C9.94,1.386 10.066,1.862 10.29,2.52 L11.438,5.67 Z M18.858,9.632 C20.146,9.632 21.14,9.324 21.616,9.128 L21.616,4.858 L18.76,4.858 L18.76,5.404 L20.944,5.404 L20.944,8.736 C20.594,8.932 19.964,9.072 18.97,9.072 C16.478,9.072 14.924,7.476 14.924,4.816 C14.924,2.254 16.52,0.56 19.11,0.56 C20.02,0.56 20.636,0.728 21.126,0.966 L21.35,0.42 C20.986,0.238 20.16,0 19.152,0 C15.946,0 14.224,2.226 14.224,4.844 C14.224,6.37 14.742,7.644 15.526,8.4 C16.478,9.324 17.612,9.632 18.858,9.632 Z M28.462,9.534 L28.462,8.974 L24.248,8.974 L24.248,4.844 L28.014,4.844 L28.014,4.284 L24.248,4.284 L24.248,0.658 L28.238,0.658 L28.238,0.098 L23.576,0.098 L23.576,9.534 L28.462,9.534 Z" id="PAGE" fill="#444444" fill-rule="nonzero"></path>
                    <polygon id="Decoration" fill="#444444" fill-rule="nonzero" points="0 9.884 0 10.584 27.348 10.584 27.348 9.884"></polygon>
                </g>
                <text id="H3-Page-Regular---16" font-family="MyriadPro-Regular, Myriad Pro" font-size="16" font-weight="normal" line-spacing="24" letter-spacing="0.15">
                    <tspan x="0" y="157.534" fill="#9AA8AC">H3 Page Regular - 16px</tspan>
                </text>
                <text id="Body-Page-Regular--" font-family="MyriadPro-Regular, Myriad Pro" font-size="16" font-weight="normal" line-spacing="24" letter-spacing="0.15">
                    <tspan x="0" y="196.534" fill="#46474A">Body Page Regular - 16px</tspan>
                </text>
                <text id="H2-Page-Light---20px" font-family="MyriadPro-Light, Myriad Pro" font-size="20" font-weight="300" line-spacing="28">
                    <tspan x="0" y="117.534" fill="#2E2F32">H2 Page Light - 20px</tspan>
                </text>
                <text id="H1-Page-Light---30-p" font-family="MyriadPro-Light, Myriad Pro" font-size="30" font-weight="300" line-spacing="44" letter-spacing="0.3">
                    <tspan x="0" y="66.534" fill="#2E2F32">H1 Page Light - 30 px</tspan>
                </text>
            </g>
        </g>
        <g id="Group-2" mask="url(#mask-2)">
            <g transform="translate(411.000000, 137.410000)">
                <g id="Myriad" stroke-width="1" fill-rule="evenodd">
                    <path d="M1.54,9.59 L1.834,5.25 C1.946,3.682 2.016,2.044 2.044,0.938 L2.072,0.938 C2.352,1.974 2.758,3.108 3.29,4.578 L5.152,9.59 L5.614,9.59 L7.602,4.466 C8.148,3.052 8.526,1.96 8.876,0.938 L8.904,0.938 C8.904,1.974 9.016,3.71 9.1,5.124 L9.38,9.59 L10.038,9.59 L9.408,0.154 L8.61,0.154 L6.496,5.6 C6.02,6.874 5.684,7.784 5.446,8.652 L5.404,8.652 C5.138,7.742 4.816,6.79 4.368,5.6 L2.338,0.154 L1.568,0.154 L0.882,9.59 L1.54,9.59 Z M15.554,9.744 C17.724,9.744 19.768,8.106 19.768,4.774 C19.768,1.862 18.032,0 15.652,0 C13.286,0 11.41,1.876 11.41,4.97 C11.41,7.91 13.216,9.744 15.54,9.744 L15.554,9.744 Z M15.582,9.184 L15.568,9.184 C13.342,9.184 12.11,7.07 12.11,4.942 C12.11,2.744 13.216,0.56 15.61,0.56 C17.976,0.56 19.068,2.828 19.068,4.816 C19.068,7.154 17.822,9.184 15.582,9.184 Z M23.52,9.66 C25.34,9.66 26.768,9.128 27.594,8.218 C28.448,7.28 28.826,6.034 28.826,4.648 C28.826,3.22 28.406,2.156 27.65,1.372 C26.866,0.546 25.564,0.084 23.842,0.084 C22.946,0.084 22.148,0.168 21.42,0.294 L21.42,9.59 C22.106,9.646 22.792,9.66 23.52,9.66 Z M23.618,9.1 C23.016,9.1 22.47,9.086 22.092,9.03 L22.092,0.798 C22.498,0.714 23.072,0.644 23.8,0.644 C26.838,0.644 28.168,2.282 28.14,4.676 C28.14,7.406 26.642,9.1 23.618,9.1 Z M30.268,9.59 L31.43,6.286 L35.168,6.286 L36.358,9.59 L37.044,9.59 L33.642,0.154 L32.998,0.154 L29.582,9.59 L30.268,9.59 Z M34.958,5.726 L31.64,5.726 L32.802,2.548 C32.998,1.946 33.152,1.456 33.292,0.91 L33.32,0.91 C33.46,1.442 33.586,1.918 33.81,2.576 L34.958,5.726 Z M43.358,9.59 L43.358,9.03 L39.158,9.03 L39.158,0.154 L38.486,0.154 L38.486,9.59 L43.358,9.59 Z" id="MODAL" fill="#444444" fill-rule="nonzero"></path>
                    <polygon id="Decoration" fill="#444444" fill-rule="nonzero" points="0 9.94 0 10.64 42.244 10.64 42.244 9.94"></polygon>
                </g>
                <text id="2.-Modal/2.-H2---18px" font-family="MyriadPro-Light, Myriad Pro" font-size="18" font-weight="300" line-spacing="24">
                    <tspan x="0" y="108.59" fill="#9AA8AC">H2 Modal - 18px</tspan>
                </text>
                <text id="2.-Modal/2.-H1---28px" font-family="MyriadPro-Light, Myriad Pro" font-size="28" font-weight="300" line-spacing="36" letter-spacing="0.3">
                    <tspan x="0" y="64.59" fill="#2E2F32">H1 Modal Light - 28px</tspan>
                </text>
            </g>
        </g>
        <g id="Group-4" mask="url(#mask-2)">
            <g transform="translate(1049.000000, 137.424000)">
                <g id="Links" stroke-width="1" fill-rule="evenodd">
                    <path d="M6.006,9.576 L6.006,9.016 L1.806,9.016 L1.806,0.14 L1.134,0.14 L1.134,9.576 L6.006,9.576 Z M8.078,9.576 L8.078,0.14 L7.406,0.14 L7.406,9.576 L8.078,9.576 Z M11.018,9.576 L11.018,4.802 C11.018,3.234 11.004,2.212 10.934,1.05 L10.962,1.036 C11.452,2.016 12.096,3.01 12.796,4.088 L16.394,9.576 L17.01,9.576 L17.01,0.14 L16.366,0.14 L16.366,4.844 C16.366,6.314 16.38,7.392 16.478,8.666 L16.45,8.68 C15.988,7.77 15.442,6.888 14.672,5.712 L11.004,0.14 L10.374,0.14 L10.374,9.576 L11.018,9.576 Z M19.964,9.576 L19.964,5.67 L20.93,4.606 L24.514,9.576 L25.312,9.576 L21.392,4.144 L24.976,0.14 L24.164,0.14 L20.818,3.934 C20.566,4.228 20.286,4.55 20.006,4.914 L19.964,4.914 L19.964,0.14 L19.292,0.14 L19.292,9.576 L19.964,9.576 Z M27.972,9.716 C29.988,9.716 30.968,8.498 30.968,7.126 C30.968,5.726 30.142,5.012 28.588,4.382 C27.23,3.85 26.628,3.318 26.628,2.282 C26.628,1.54 27.146,0.56 28.672,0.56 C29.484,0.56 30.086,0.826 30.338,1.008 L30.59,0.434 C30.268,0.224 29.596,0 28.714,0 C27.104,0 25.97,1.008 25.97,2.394 C25.97,3.668 26.88,4.452 28.392,4.998 C29.764,5.516 30.31,6.146 30.31,7.196 C30.31,8.358 29.442,9.156 28.028,9.156 C27.244,9.156 26.502,8.904 25.97,8.54 L25.718,9.086 C26.208,9.45 27.16,9.716 27.972,9.716 Z" id="LINKS" fill="#444444" fill-rule="nonzero"></path>
                    <polygon id="Decoration" fill="#444444" fill-rule="nonzero" points="0 9.926 0 10.626 30.4 10.626 30.4 9.926"></polygon>
                </g>
                <text id="4.-Link/2.-Card-Link---11px" font-family="Nunito-Bold, Nunito" font-size="11" font-weight="bold" line-spacing="16" letter-spacing="0.5">
                    <tspan x="0" y="89.576" fill="#0097DB">CARD BOLD LINK - 11PX</tspan>
                </text>
                <text id="4.-Link/1.-Page-Link---14px" font-family="Nunito-Bold, Nunito" font-size="14" font-weight="bold" line-spacing="20" letter-spacing="0.5">
                    <tspan x="0" y="57.576" fill="#0097DB">PAGE BOLD LINK - 14PX</tspan>
                </text>
            </g>
        </g>
    </g>
</svg>